<svg xmlns="http://www.w3.org/2000/svg" width="1982" height="912" viewBox="0 0 1982 912" version="1.1"><path d="M 362 69.358 C 356.968 73.344, 334.556 96.359, 319.014 113.500 C 299.107 135.456, 278.833 164.312, 268.171 185.865 C 256.200 210.063, 250.998 229.667, 251.016 250.500 C 251.046 283.339, 264.076 307.546, 295.911 333.905 C 301.925 338.885, 304 342.883, 304 349.493 C 304 369.171, 279.311 394.923, 243.500 412.597 C 225.738 421.364, 207.798 424.694, 187.789 422.938 C 163.795 420.832, 145.426 413.696, 135.062 402.452 C 127.229 393.954, 125.341 385.768, 128.500 374 C 130.431 366.808, 130.397 356.522, 128.425 350.734 C 126.477 345.016, 120.112 337.634, 114.628 334.731 C 108.372 331.420, 97.241 331.640, 90.410 335.211 C 81.331 339.956, 75.670 348.450, 74.404 359.223 C 73.032 370.893, 77.799 380.612, 87.611 386.149 C 97.159 391.538, 97.743 393.494, 101.011 431 C 102.136 443.925, 103.967 460.800, 105.078 468.500 C 118.865 564.039, 162.353 642.213, 233.403 699.180 C 259.441 720.056, 278.178 731.628, 326.250 756.520 C 340.471 763.883, 349 768.858, 349 769.790 C 349 770.610, 345.668 777.630, 341.595 785.390 C 337.523 793.151, 333.461 801.975, 332.568 805 C 326.033 827.150, 333.786 849.475, 350.857 857.663 C 358.810 861.477, 371.977 862.116, 381.687 859.158 C 399.592 853.705, 408.876 841.745, 409.754 823 C 410.437 808.406, 408.002 800.777, 396.780 782.354 C 393.861 777.562, 391.752 772.875, 391.659 770.971 L 391.500 767.735 404.619 762.528 C 485.291 730.505, 552.187 670.004, 597.510 588.077 C 605.251 574.085, 610.964 561.688, 618.548 542.427 C 634.082 502.976, 641.470 466.267, 643.802 416.946 C 644.785 396.149, 645.528 394.033, 655.834 382.675 C 664.201 373.453, 667.290 367.430, 667.821 359.300 C 668.738 345.279, 658.565 335.569, 641.618 334.287 C 617.297 332.448, 603.556 351.238, 612.700 373.829 C 614.185 377.498, 615.370 382.087, 615.334 384.027 C 615.079 397.689, 591.079 415.655, 564.500 422.081 C 541.830 427.562, 524.435 424.891, 498.500 411.946 C 484.597 405.006, 473.291 397.153, 458.987 384.500 C 443.106 370.452, 434.044 358.826, 434.044 352.500 C 434.044 347.815, 438.285 341.891, 450.288 329.810 C 478.883 301.030, 489.279 279.477, 489.264 249 C 489.242 201.642, 458.161 147.632, 393.018 81.750 C 376.497 65.042, 376.445 65, 371.978 65.001 C 368.201 65.001, 366.639 65.684, 362 69.358 M 364.232 201.010 C 353.404 203.272, 339.150 214.850, 333.524 225.953 C 326.374 240.063, 329.804 258.018, 342.115 270.926 C 347.587 276.663, 354.596 280.383, 363.181 282.107 C 378.212 285.126, 397.663 274.186, 406.135 257.949 C 409.332 251.822, 409.500 250.975, 409.500 241 C 409.500 231.201, 409.285 230.060, 406.277 223.913 C 398.197 207.402, 380.302 197.654, 364.232 201.010 M 1228 392.020 C 1208.608 395.453, 1191.493 402.303, 1174.560 413.408 C 1164.213 420.194, 1151.792 431.004, 1145.806 438.435 C 1139.957 445.695, 1134 457.567, 1134 461.963 L 1134 465.278 1139.750 464.732 C 1145.323 464.204, 1155.438 460.356, 1174.500 451.514 C 1215.565 432.466, 1240.085 429.497, 1251.549 442.186 C 1259.614 451.113, 1261.812 460.767, 1262.666 491.029 L 1263.302 513.558 1238.083 518.844 C 1208.175 525.112, 1190.271 530.720, 1172.248 539.464 C 1130.636 559.652, 1106.833 588.791, 1099.923 628 C 1098.300 637.206, 1098.346 658.176, 1100.011 668.125 C 1106.631 707.690, 1138.386 730.839, 1178.096 725.050 C 1202.614 721.475, 1226.190 709.460, 1252.043 687.365 C 1266.285 675.193, 1270.479 672, 1272.230 672 C 1272.979 672, 1276.942 678.392, 1281.036 686.204 C 1293.289 709.586, 1303.384 720.303, 1317.619 725.040 C 1322.871 726.787, 1325.822 727.151, 1331.890 726.800 C 1349.593 725.775, 1362.838 714.564, 1375.687 689.727 L 1380.226 680.955 1394.420 694.727 C 1412.841 712.601, 1423.500 719.003, 1443.264 724.062 C 1490.026 736.033, 1548.762 714.637, 1574.934 676.097 C 1585.292 660.844, 1589.362 647.890, 1589.418 630 C 1589.464 614.877, 1587.790 607.519, 1581.226 594 C 1577.265 585.841, 1575.265 583.151, 1567.057 574.940 C 1551.081 558.958, 1529.380 547.069, 1491.500 533.548 C 1447.732 517.925, 1434.797 505.430, 1440.517 484.301 C 1442.744 476.072, 1452.436 461.155, 1458.366 456.828 C 1475.180 444.560, 1512.969 435.461, 1536.845 437.931 C 1550.619 439.356, 1557 443.280, 1557 450.325 C 1557 451.551, 1557.737 453.607, 1558.637 454.892 C 1560.048 456.907, 1560.886 457.160, 1564.712 456.729 C 1573.284 455.763, 1581.231 446.326, 1581.231 437.113 C 1581.231 422.311, 1563.610 408.241, 1537.615 402.286 C 1528.779 400.261, 1497.740 399.988, 1488 401.849 C 1446.890 409.704, 1413.207 433.139, 1398.543 464.089 C 1393.197 475.373, 1390.999 485.383, 1391.007 498.410 C 1391.019 518.001, 1396.997 535.818, 1407.177 546.606 C 1419.127 559.270, 1433.703 566.506, 1487.343 586.403 C 1524.074 600.028, 1538.944 618.121, 1534.046 643.225 C 1528.328 672.527, 1495.769 690.496, 1461.208 683.422 C 1440.129 679.108, 1426.250 669.518, 1410.053 648.073 C 1405.246 641.708, 1400.138 635.872, 1398.702 635.105 C 1396.394 633.873, 1395.766 633.922, 1393.295 635.530 C 1389.862 637.765, 1389.415 638.310, 1381.838 649.500 C 1361.532 679.488, 1354.689 685.086, 1342.629 681.581 C 1322.935 675.855, 1320.126 663.263, 1316.509 564.500 C 1314.222 502.038, 1312.172 476.796, 1307.494 453.500 C 1299.999 416.168, 1286.913 397.380, 1264.307 391.492 C 1256.613 389.488, 1241.025 389.715, 1228 392.020 M 1754.928 391.462 C 1728.960 395.717, 1707.386 404.717, 1687.058 419.776 C 1676.628 427.502, 1664.001 440.645, 1660.254 447.674 C 1656.519 454.683, 1655.180 462.603, 1657.261 465.385 C 1658.625 467.208, 1658.848 467.213, 1664.085 465.520 C 1667.063 464.557, 1678.725 459.714, 1690 454.757 C 1726.622 438.656, 1741.322 434.043, 1756 434.044 C 1765.341 434.044, 1770.123 436.061, 1775.638 442.326 C 1783.467 451.221, 1786.311 466.349, 1785.803 496.407 L 1785.500 514.315 1767.500 517.693 C 1725.586 525.559, 1701.013 534.705, 1674.838 552.180 C 1646.502 571.099, 1627.403 595.951, 1619.781 623.825 C 1616.834 634.601, 1616.879 655.088, 1619.874 666.500 C 1622.521 676.587, 1630.330 692.510, 1636.847 701.111 C 1655.463 725.678, 1684.023 732.878, 1717.267 721.383 C 1736.403 714.766, 1752.969 704.607, 1778.963 683.551 C 1787.468 676.662, 1794.739 671.358, 1795.122 671.763 C 1795.505 672.168, 1798.374 677.225, 1801.498 683 C 1808.098 695.203, 1816.329 706.393, 1822.884 712.073 C 1825.423 714.273, 1831.291 717.969, 1835.924 720.286 C 1844.151 724.402, 1844.583 724.500, 1854.424 724.500 C 1863.721 724.500, 1865.032 724.248, 1871.374 721.245 C 1883.535 715.485, 1894.547 702.053, 1901.496 684.500 C 1904.682 676.453, 1905.953 665.854, 1904.013 663.516 C 1901.032 659.924, 1896.735 662.284, 1889.112 671.696 C 1885.893 675.671, 1883.614 677.375, 1879.414 678.946 C 1869.723 682.572, 1860.037 681.371, 1853.626 675.749 C 1843.692 667.037, 1839.622 636.701, 1838.028 559.500 C 1836.890 504.372, 1836.299 490.404, 1834.420 474.139 C 1828.766 425.187, 1814.104 399.561, 1787.632 392.361 C 1779.919 390.263, 1764.784 389.847, 1754.928 391.462 M 691.704 392.596 C 690.166 393.430, 688.495 395.197, 687.991 396.523 C 684.688 405.211, 682.980 457.328, 682.996 548.916 C 683.013 648.507, 684.812 700.827, 688.524 709.711 C 690.976 715.580, 697.056 723.871, 700.441 725.964 C 704.633 728.554, 709.021 728.558, 712.307 725.973 C 723.153 717.442, 733.070 677.721, 737.018 627 C 740.292 584.935, 745.314 547.846, 750.507 527.374 C 757.443 500.032, 766.122 485.663, 789.093 463.489 C 826.062 427.805, 838.694 436.010, 844.534 499.500 C 845.451 509.475, 846.380 539.035, 847.001 578 C 848.614 679.269, 849.935 700.064, 855.483 711.508 C 858.847 718.448, 862.559 720.518, 871.500 720.437 C 878.964 720.369, 882.942 718.900, 886.637 714.845 C 895.982 704.591, 899.787 678.693, 901.965 610.500 C 904.327 536.581, 905.742 517.533, 910.016 502.161 C 915.132 483.760, 922.535 475.289, 951.058 455.200 C 974.918 438.395, 985.650 437.376, 992.424 451.274 C 1000.780 468.420, 1003.137 493.355, 1006.998 605.500 C 1010.223 699.163, 1015.217 726, 1029.422 726 C 1034.462 726, 1043.412 719.540, 1053.279 708.780 L 1062.057 699.206 1060.542 644.853 C 1059.709 614.959, 1058.561 578.800, 1057.990 564.500 C 1054.175 468.816, 1045.434 422.158, 1027.606 402.329 C 1009.106 381.753, 979.862 391.824, 926.927 437 C 904.903 455.796, 895.490 463, 892.953 463 C 891.668 463, 890.852 462.096, 890.472 460.250 C 888.458 450.461, 874.407 427.546, 863.272 415.890 C 845.019 396.783, 825.726 395.506, 800.500 411.735 C 789.919 418.542, 784.582 423.292, 758.859 448.791 L 735.219 472.227 734.552 466.863 C 730.253 432.315, 723.188 411.423, 711.690 399.266 C 704.220 391.367, 697.875 389.250, 691.704 392.596 M 362.824 444.182 C 354.721 458.531, 342.621 471.270, 330.141 478.594 C 321.464 483.687, 317 487.392, 317 489.502 C 317 491.916, 321.140 495.911, 330.756 502.777 C 341.500 510.448, 351.545 520.494, 358.055 530.080 C 363.837 538.595, 368.877 544, 371.035 544 C 374.683 544, 376.253 542.546, 382.245 533.619 C 390.540 521.260, 397.211 514.491, 412.129 503.297 C 424.720 493.849, 427.798 490.523, 426.671 487.584 C 426.343 486.731, 423.170 484.661, 419.620 482.983 C 408.813 477.877, 393.144 462.966, 375.757 441.242 L 369.148 432.984 362.824 444.182 M 1233.500 554.626 C 1232.400 554.842, 1229.025 555.495, 1226 556.076 C 1217.644 557.681, 1205.300 561.882, 1197.500 565.777 C 1166.235 581.386, 1150.029 605.898, 1150.007 637.614 C 1149.992 659.745, 1155.848 673.199, 1168.362 679.783 C 1172.815 682.126, 1174.633 682.479, 1182 682.430 C 1189.054 682.384, 1191.809 681.854, 1198.197 679.315 C 1211.967 673.841, 1221.826 666.379, 1240.750 647.106 L 1258 629.539 1258 591.769 L 1258 554 1246.750 554.116 C 1240.563 554.180, 1234.600 554.409, 1233.500 554.626 M 1755.500 555.098 C 1751.100 555.556, 1744.159 556.669, 1740.075 557.572 C 1691.075 568.408, 1657.868 623.636, 1676.410 663.457 C 1679.980 671.124, 1688.296 679.972, 1694.282 682.474 C 1710.588 689.286, 1733.291 680.410, 1752.741 659.618 C 1760.877 650.920, 1766.188 642.958, 1772.075 630.630 C 1779.999 614.037, 1781.187 607.657, 1781.734 578.750 L 1782.202 554 1772.851 554.133 C 1767.708 554.206, 1759.900 554.641, 1755.500 555.098" stroke="none" fill="#e4cc14" fill-rule="evenodd"/><path d="M -0 456.001 L -0 912.001 991.250 911.751 L 1982.500 911.500 1982.751 455.750 L 1983.002 0 991.501 0 L 0 0 -0 456.001 M 0.496 456.500 C 0.496 707.300, 0.610 809.751, 0.750 684.168 C 0.890 558.586, 0.890 353.386, 0.750 228.168 C 0.610 102.951, 0.496 205.700, 0.496 456.500 M 362 69.358 C 356.968 73.344, 334.556 96.359, 319.014 113.500 C 299.107 135.456, 278.833 164.312, 268.171 185.865 C 256.200 210.063, 250.998 229.667, 251.016 250.500 C 251.046 283.339, 264.076 307.546, 295.911 333.905 C 301.925 338.885, 304 342.883, 304 349.493 C 304 369.171, 279.311 394.923, 243.500 412.597 C 225.738 421.364, 207.798 424.694, 187.789 422.938 C 163.795 420.832, 145.426 413.696, 135.062 402.452 C 127.229 393.954, 125.341 385.768, 128.500 374 C 130.431 366.808, 130.397 356.522, 128.425 350.734 C 126.477 345.016, 120.112 337.634, 114.628 334.731 C 108.372 331.420, 97.241 331.640, 90.410 335.211 C 81.331 339.956, 75.670 348.450, 74.404 359.223 C 73.032 370.893, 77.799 380.612, 87.611 386.149 C 97.159 391.538, 97.743 393.494, 101.011 431 C 102.136 443.925, 103.967 460.800, 105.078 468.500 C 118.865 564.039, 162.353 642.213, 233.403 699.180 C 259.441 720.056, 278.178 731.628, 326.250 756.520 C 340.471 763.883, 349 768.858, 349 769.790 C 349 770.610, 345.668 777.630, 341.595 785.390 C 337.523 793.151, 333.461 801.975, 332.568 805 C 326.033 827.150, 333.786 849.475, 350.857 857.663 C 358.810 861.477, 371.977 862.116, 381.687 859.158 C 399.592 853.705, 408.876 841.745, 409.754 823 C 410.437 808.406, 408.002 800.777, 396.780 782.354 C 393.861 777.562, 391.752 772.875, 391.659 770.971 L 391.500 767.735 404.619 762.528 C 485.291 730.505, 552.187 670.004, 597.510 588.077 C 605.251 574.085, 610.964 561.688, 618.548 542.427 C 634.082 502.976, 641.470 466.267, 643.802 416.946 C 644.785 396.149, 645.528 394.033, 655.834 382.675 C 664.201 373.453, 667.290 367.430, 667.821 359.300 C 668.738 345.279, 658.565 335.569, 641.618 334.287 C 617.297 332.448, 603.556 351.238, 612.700 373.829 C 614.185 377.498, 615.370 382.087, 615.334 384.027 C 615.079 397.689, 591.079 415.655, 564.500 422.081 C 541.830 427.562, 524.435 424.891, 498.500 411.946 C 484.597 405.006, 473.291 397.153, 458.987 384.500 C 443.106 370.452, 434.044 358.826, 434.044 352.500 C 434.044 347.815, 438.285 341.891, 450.288 329.810 C 478.883 301.030, 489.279 279.477, 489.264 249 C 489.242 201.642, 458.161 147.632, 393.018 81.750 C 376.497 65.042, 376.445 65, 371.978 65.001 C 368.201 65.001, 366.639 65.684, 362 69.358 M 364.232 201.010 C 353.404 203.272, 339.150 214.850, 333.524 225.953 C 326.374 240.063, 329.804 258.018, 342.115 270.926 C 347.587 276.663, 354.596 280.383, 363.181 282.107 C 378.212 285.126, 397.663 274.186, 406.135 257.949 C 409.332 251.822, 409.500 250.975, 409.500 241 C 409.500 231.201, 409.285 230.060, 406.277 223.913 C 398.197 207.402, 380.302 197.654, 364.232 201.010 M 1228 392.020 C 1208.608 395.453, 1191.493 402.303, 1174.560 413.408 C 1164.213 420.194, 1151.792 431.004, 1145.806 438.435 C 1139.957 445.695, 1134 457.567, 1134 461.963 L 1134 465.278 1139.750 464.732 C 1145.323 464.204, 1155.438 460.356, 1174.500 451.514 C 1215.565 432.466, 1240.085 429.497, 1251.549 442.186 C 1259.614 451.113, 1261.812 460.767, 1262.666 491.029 L 1263.302 513.558 1238.083 518.844 C 1208.175 525.112, 1190.271 530.720, 1172.248 539.464 C 1130.636 559.652, 1106.833 588.791, 1099.923 628 C 1098.300 637.206, 1098.346 658.176, 1100.011 668.125 C 1106.631 707.690, 1138.386 730.839, 1178.096 725.050 C 1202.614 721.475, 1226.190 709.460, 1252.043 687.365 C 1266.285 675.193, 1270.479 672, 1272.230 672 C 1272.979 672, 1276.942 678.392, 1281.036 686.204 C 1293.289 709.586, 1303.384 720.303, 1317.619 725.040 C 1322.871 726.787, 1325.822 727.151, 1331.890 726.800 C 1349.593 725.775, 1362.838 714.564, 1375.687 689.727 L 1380.226 680.955 1394.420 694.727 C 1412.841 712.601, 1423.500 719.003, 1443.264 724.062 C 1490.026 736.033, 1548.762 714.637, 1574.934 676.097 C 1585.292 660.844, 1589.362 647.890, 1589.418 630 C 1589.464 614.877, 1587.790 607.519, 1581.226 594 C 1577.265 585.841, 1575.265 583.151, 1567.057 574.940 C 1551.081 558.958, 1529.380 547.069, 1491.500 533.548 C 1447.732 517.925, 1434.797 505.430, 1440.517 484.301 C 1442.744 476.072, 1452.436 461.155, 1458.366 456.828 C 1475.180 444.560, 1512.969 435.461, 1536.845 437.931 C 1550.619 439.356, 1557 443.280, 1557 450.325 C 1557 451.551, 1557.737 453.607, 1558.637 454.892 C 1560.048 456.907, 1560.886 457.160, 1564.712 456.729 C 1573.284 455.763, 1581.231 446.326, 1581.231 437.113 C 1581.231 422.311, 1563.610 408.241, 1537.615 402.286 C 1528.779 400.261, 1497.740 399.988, 1488 401.849 C 1446.890 409.704, 1413.207 433.139, 1398.543 464.089 C 1393.197 475.373, 1390.999 485.383, 1391.007 498.410 C 1391.019 518.001, 1396.997 535.818, 1407.177 546.606 C 1419.127 559.270, 1433.703 566.506, 1487.343 586.403 C 1524.074 600.028, 1538.944 618.121, 1534.046 643.225 C 1528.328 672.527, 1495.769 690.496, 1461.208 683.422 C 1440.129 679.108, 1426.250 669.518, 1410.053 648.073 C 1405.246 641.708, 1400.138 635.872, 1398.702 635.105 C 1396.394 633.873, 1395.766 633.922, 1393.295 635.530 C 1389.862 637.765, 1389.415 638.310, 1381.838 649.500 C 1361.532 679.488, 1354.689 685.086, 1342.629 681.581 C 1322.935 675.855, 1320.126 663.263, 1316.509 564.500 C 1314.222 502.038, 1312.172 476.796, 1307.494 453.500 C 1299.999 416.168, 1286.913 397.380, 1264.307 391.492 C 1256.613 389.488, 1241.025 389.715, 1228 392.020 M 1754.928 391.462 C 1728.960 395.717, 1707.386 404.717, 1687.058 419.776 C 1676.628 427.502, 1664.001 440.645, 1660.254 447.674 C 1656.519 454.683, 1655.180 462.603, 1657.261 465.385 C 1658.625 467.208, 1658.848 467.213, 1664.085 465.520 C 1667.063 464.557, 1678.725 459.714, 1690 454.757 C 1726.622 438.656, 1741.322 434.043, 1756 434.044 C 1765.341 434.044, 1770.123 436.061, 1775.638 442.326 C 1783.467 451.221, 1786.311 466.349, 1785.803 496.407 L 1785.500 514.315 1767.500 517.693 C 1725.586 525.559, 1701.013 534.705, 1674.838 552.180 C 1646.502 571.099, 1627.403 595.951, 1619.781 623.825 C 1616.834 634.601, 1616.879 655.088, 1619.874 666.500 C 1622.521 676.587, 1630.330 692.510, 1636.847 701.111 C 1655.463 725.678, 1684.023 732.878, 1717.267 721.383 C 1736.403 714.766, 1752.969 704.607, 1778.963 683.551 C 1787.468 676.662, 1794.739 671.358, 1795.122 671.763 C 1795.505 672.168, 1798.374 677.225, 1801.498 683 C 1808.098 695.203, 1816.329 706.393, 1822.884 712.073 C 1825.423 714.273, 1831.291 717.969, 1835.924 720.286 C 1844.151 724.402, 1844.583 724.500, 1854.424 724.500 C 1863.721 724.500, 1865.032 724.248, 1871.374 721.245 C 1883.535 715.485, 1894.547 702.053, 1901.496 684.500 C 1904.682 676.453, 1905.953 665.854, 1904.013 663.516 C 1901.032 659.924, 1896.735 662.284, 1889.112 671.696 C 1885.893 675.671, 1883.614 677.375, 1879.414 678.946 C 1869.723 682.572, 1860.037 681.371, 1853.626 675.749 C 1843.692 667.037, 1839.622 636.701, 1838.028 559.500 C 1836.890 504.372, 1836.299 490.404, 1834.420 474.139 C 1828.766 425.187, 1814.104 399.561, 1787.632 392.361 C 1779.919 390.263, 1764.784 389.847, 1754.928 391.462 M 691.704 392.596 C 690.166 393.430, 688.495 395.197, 687.991 396.523 C 684.688 405.211, 682.980 457.328, 682.996 548.916 C 683.013 648.507, 684.812 700.827, 688.524 709.711 C 690.976 715.580, 697.056 723.871, 700.441 725.964 C 704.633 728.554, 709.021 728.558, 712.307 725.973 C 723.153 717.442, 733.070 677.721, 737.018 627 C 740.292 584.935, 745.314 547.846, 750.507 527.374 C 757.443 500.032, 766.122 485.663, 789.093 463.489 C 826.062 427.805, 838.694 436.010, 844.534 499.500 C 845.451 509.475, 846.380 539.035, 847.001 578 C 848.614 679.269, 849.935 700.064, 855.483 711.508 C 858.847 718.448, 862.559 720.518, 871.500 720.437 C 878.964 720.369, 882.942 718.900, 886.637 714.845 C 895.982 704.591, 899.787 678.693, 901.965 610.500 C 904.327 536.581, 905.742 517.533, 910.016 502.161 C 915.132 483.760, 922.535 475.289, 951.058 455.200 C 974.918 438.395, 985.650 437.376, 992.424 451.274 C 1000.780 468.420, 1003.137 493.355, 1006.998 605.500 C 1010.223 699.163, 1015.217 726, 1029.422 726 C 1034.462 726, 1043.412 719.540, 1053.279 708.780 L 1062.057 699.206 1060.542 644.853 C 1059.709 614.959, 1058.561 578.800, 1057.990 564.500 C 1054.175 468.816, 1045.434 422.158, 1027.606 402.329 C 1009.106 381.753, 979.862 391.824, 926.927 437 C 904.903 455.796, 895.490 463, 892.953 463 C 891.668 463, 890.852 462.096, 890.472 460.250 C 888.458 450.461, 874.407 427.546, 863.272 415.890 C 845.019 396.783, 825.726 395.506, 800.500 411.735 C 789.919 418.542, 784.582 423.292, 758.859 448.791 L 735.219 472.227 734.552 466.863 C 730.253 432.315, 723.188 411.423, 711.690 399.266 C 704.220 391.367, 697.875 389.250, 691.704 392.596 M 362.824 444.182 C 354.721 458.531, 342.621 471.270, 330.141 478.594 C 321.464 483.687, 317 487.392, 317 489.502 C 317 491.916, 321.140 495.911, 330.756 502.777 C 341.500 510.448, 351.545 520.494, 358.055 530.080 C 363.837 538.595, 368.877 544, 371.035 544 C 374.683 544, 376.253 542.546, 382.245 533.619 C 390.540 521.260, 397.211 514.491, 412.129 503.297 C 424.720 493.849, 427.798 490.523, 426.671 487.584 C 426.343 486.731, 423.170 484.661, 419.620 482.983 C 408.813 477.877, 393.144 462.966, 375.757 441.242 L 369.148 432.984 362.824 444.182 M 1233.500 554.626 C 1232.400 554.842, 1229.025 555.495, 1226 556.076 C 1217.644 557.681, 1205.300 561.882, 1197.500 565.777 C 1166.235 581.386, 1150.029 605.898, 1150.007 637.614 C 1149.992 659.745, 1155.848 673.199, 1168.362 679.783 C 1172.815 682.126, 1174.633 682.479, 1182 682.430 C 1189.054 682.384, 1191.809 681.854, 1198.197 679.315 C 1211.967 673.841, 1221.826 666.379, 1240.750 647.106 L 1258 629.539 1258 591.769 L 1258 554 1246.750 554.116 C 1240.563 554.180, 1234.600 554.409, 1233.500 554.626 M 1755.500 555.098 C 1751.100 555.556, 1744.159 556.669, 1740.075 557.572 C 1691.075 568.408, 1657.868 623.636, 1676.410 663.457 C 1679.980 671.124, 1688.296 679.972, 1694.282 682.474 C 1710.588 689.286, 1733.291 680.410, 1752.741 659.618 C 1760.877 650.920, 1766.188 642.958, 1772.075 630.630 C 1779.999 614.037, 1781.187 607.657, 1781.734 578.750 L 1782.202 554 1772.851 554.133 C 1767.708 554.206, 1759.900 554.641, 1755.500 555.098" stroke="none" fill="none" fill-rule="evenodd"/></svg>